<svg xmlns="http://www.w3.org/2000/svg" viewBox="0 0 264 73" fill="#29293a" aria-hidden="false" height="11" data-tb-premium="" class="css-1fxhxds"><title>SZ Plus</title><path fill="#009990" fill-rule="evenodd" d="M140.16 46.81c7.28 0 10.63-3.77 10.63-9.84 0-5.48-2.68-9.05-9.7-9.05h-3.24v18.9h2.31zm-14.2 25.45v-53.1h16.54c15.4 0 20.43 7.6 20.43 17.55 0 11.21-6.45 18.95-22.1 18.95h-2.98v16.6h-11.88zM177.93 72.26c-5.18 0-8.22-2.23-8.22-8.9V13.09h11.2v47.76c0 2.97 1.02 3.69 4.67 3.08l.73 7.34c-1.98.36-5.43 1-8.38 1M216.92 70.84l-1-5.17c-3.51 3.75-6.52 5.84-12.54 5.84-7.53 0-12.54-4.84-12.54-15.08V29.78h11.28v25.15c0 4.83 1.59 7.41 5.6 7.41 3.01 0 5.2-1.41 7.28-3.33V29.78h11.29v41.06h-9.37zM235.93 61.08c3.28 2 7.82 3.34 12.19 3.34 2.69 0 4.87-1.59 4.87-3.93 0-7.17-19.25-2.67-19.25-18.19 0-7.1 6.22-12.52 15.89-12.52 5.38 0 10.33 1.67 13.7 3.76l-3.11 7.42c-2.52-1.75-6.64-3.42-10.34-3.42-3.44 0-5.12 1.92-5.12 4.1 0 6.84 19.24 2.83 19.24 18.35 0 7.27-6.9 12.27-16.05 12.27-6.55 0-12.02-1.75-14.88-3.59l2.86-7.6z" clip-rule="evenodd"></path><path id="szplus-icon-sz-letters" fill-rule="evenodd" d="M116.4 1.06l-51.12.03-7.64 7.3C46.4.88 32.24-2.8 18.87 2.52c-6.65 2.38-13.63 8.79-14.3 16-1.03 7.54 3.17 13.83 9.07 18.07 11.25 7.89 26.56 6.2 35.76 17.18 5.5 7.37-1.04 19.07-20.98 11.5-7.72-3.28-8.4-3.67-18.27-10.64L0 64.97l2.65 2.55 4.7-4.8c11.14 7.44 23.85 11.66 37.93 8.46 6.93-1.72 13.4-8.46 14.65-15.55 1.02-5.6-.33-10.87-4.08-14.76-6.53-7.28-27.9-13.85-27.9-13.85S12.33 22.6 12.52 14.85c.19-4.33 4.77-7.32 8.17-8.47 12.63-3.6 24.89 3.17 34.96 10.08.02.02 3.54-3.6 3.54-3.6 6.97-6.8 18.29-7.13 25.95-7.4l13.62.01-39.6 65.72h50.93l3.45-8.03c-7.33 2.79-27.58 3.87-35.89 3.53L116.4 1.06z" clip-rule="evenodd"></path></svg>